{"title":"Party Monster [2003] x265 HEVC","uid":12112036,"size":692386607,"categoryP":"video","categoryS":"movies","magnet":"?xt=urn:btih:6d6590f6407a4598f7ecea9e4de4e3013ecd8678&amp;dn=Party+Monster+%5B2003%5D+x265+HEVC&amp;tr=udp%3A%2F%2Ftracker.openbittorrent.com%3A80&amp;tr=udp%3A%2F%2Fopen.demonii.com%3A1337&amp;tr=udp%3A%2F%2Ftracker.coppersurfer.tk%3A6969&amp;tr=udp%3A%2F%2Fexodus.desync.com%3A6969","seeders":0,"leechers":0,"uploader":null,"files":1,"time":1436601424,"description":"Format                                   : MPEG-4\nFormat profile                           : Base Media / Version 2\nCodec ID                                 : mp42\nFile size                                : 660 MiB\nDuration                                 : 1h 38mn\nOverall bit rate mode                    : Variable\nOverall bit rate                         : 935 Kbps\n\nVideo\nID                                       : 1\nFormat                                   : HEVC\nFormat/Info                              : High Efficiency Video Coding\nFormat profile                           : Main@L3@Main\nCodec ID                                 : hev1\nCodec ID/Info                            : High Efficiency Video Coding\nDuration                                 : 1h 38mn\nBit rate                                 : 801 Kbps\nWidth                                    : 720 pixels\nHeight                                   : 480 pixels\nDisplay aspect ratio                     : 16:9\nOriginal display aspect ratio            : 16:9\nFrame rate mode                          : Variable\nFrame rate                               : 29.970 fps\nMinimum frame rate                       : 9.990 fps\nMaximum frame rate                       : 29.970 fps\nStandard                                 : NTSC\nColor space                              : YUV\nChroma subsampling                       : 4:2:0\nBit depth                                : 8 bits\nBits/(Pixel*Frame)                       : 0.077\nStream size                              : 565 MiB (86%)\nWriting library                          : x265 1.5:[Windows][GCC 4.9.0][64 bit]\nEncoding settings                        : wpp / ctu=32 / tu-intra-depth=1 / tu-inter-depth=1 / me=1 / subme=1 / merange=57 / no-rect / no-amp / max-merge=2 / temporal-mvp / early-skip / no-fast-cbf / rdpenalty=0 / no-tskip / no-tskip-fast / strong-intra-smoothing / no-lossless / no-cu-lossless / no-constrained-intra / fast-intra / open-gop / interlace=0 / keyint=300 / min-keyint=30 / scenecut=40 / rc-lookahead=15 / bframes=4 / bframe-bias=0 / b-adapt=0 / ref=1 / weightp / no-weightb / aq-mode=1 / aq-strength=1.00 / cbqpoffs=0 / crqpoffs=0 / rd=2 / psy-rd=0.30 / psy-rdoq=0.00 / signhide / lft / sao / no-sao-non-deblock / b-pyramid / no-cutree / rc=2 / pass / bitrate=800 / qcomp=0.60 / qpmin=0 / qpmax=51 / qpstep=4 / cplxblur=20.0 / qblur=0.5 / ipratio=1.40 / pbratio=1.30\nColor range                              : Limited\nColor primaries                          : BT.601 NTSC\nTransfer characteristics                 : BT.709\nMatrix coefficients                      : BT.601\n\nAudio\nID                                       : 2\nFormat                                   : AAC\nFormat/Info                              : Advanced Audio Codec\nFormat profile                           : LC\nCodec ID                                 : 40\nDuration                                 : 1h 38mn\nBit rate mode                            : Variable\nBit rate                                 : 128 Kbps\nChannel(s)                               : 2 channels\nChannel positions                        : Front: L R\nSampling rate                            : 48.0 KHz\nCompression mode                         : Lossy\nStream size                              : 90.3 MiB (14%)\nTitle                                    : Stereo / Stereo\nLanguage                                 : English\n\nMenu\nID                                       : 3\nCodec ID                                 : text\nDuration                                 : 1h 38mn\nLanguage                                 : English\n00:00:00.000                             : Chapter 1\n00:03:39.119                             : Chapter 2\n00:07:59.946                             : Chapter 3\n00:12:24.877                             : Chapter 4\n00:16:17.877                             : Chapter 5\n00:20:31.163                             : Chapter 6\n00:23:06.285                             : Chapter 7\n00:27:55.474                             : Chapter 8\n00:31:27.686                             : Chapter 9\n00:36:02.293                             : Chapter 10\n00:40:42.507                             : Chapter 11\n00:44:19.824                             : Chapter 12\n00:46:49.540                             : Chapter 13\n00:53:43.187                             : Chapter 14\n00:56:28.652                             : Chapter 15\n00:59:20.757                             : Chapter 16\n01:04:46.950                             : Chapter 17\n01:08:10.320                             : Chapter 18\n01:12:32.381                             : Chapter 19\n01:16:36.158                             : Chapter 20\n01:21:05.961                             : Chapter 21\n01:23:40.816                             : Chapter 22\n01:27:54.302                             : Chapter 23\n01:33:42.884                             : Chapter 24\nBit rate mode                            : VBR","torrent":{"xt":"urn:btih:6d6590f6407a4598f7ecea9e4de4e3013ecd8678","amp;dn":"Party+Monster+%5B2003%5D+x265+HEVC","amp;tr":["udp%3A%2F%2Ftracker.openbittorrent.com%3A80","udp%3A%2F%2Fopen.demonii.com%3A1337","udp%3A%2F%2Ftracker.coppersurfer.tk%3A6969","udp%3A%2F%2Fexodus.desync.com%3A6969"],"infoHash":"6d6590f6407a4598f7ecea9e4de4e3013ecd8678","infoHashBuffer":{"type":"Buffer","data":[109,101,144,246,64,122,69,152,247,236,234,158,77,228,227,1,62,205,134,120]},"announce":[],"urlList":[]}}